<?xml version="1.0" encoding="UTF-8" standalone="no"?>
<!DOCTYPE svg PUBLIC "-//W3C//DTD SVG 1.1//EN" "http://www.w3.org/Graphics/SVG/1.1/DTD/svg11.dtd">
<svg width="100%" height="100%" viewBox="0 0 1024 1024" version="1.1" xmlns="http://www.w3.org/2000/svg" xmlns:xlink="http://www.w3.org/1999/xlink" xml:space="preserve" xmlns:serif="http://www.serif.com/" style="fill-rule:evenodd;clip-rule:evenodd;stroke-linejoin:round;stroke-miterlimit:2;">
    <g id="Artboard1" transform="matrix(1,0,0,0.982726,0,0)">
        <rect x="0" y="0" width="1024" height="1042" style="fill:none;"/>
        <g transform="matrix(1.04304,0,0,1.06137,-3.02488,-57.3541)">
            <path d="M881.655,467.335C881.655,296.073 707.851,157.03 493.774,157.03C279.696,157.03 105.892,296.073 105.892,467.335C105.892,568.544 167.589,663.394 271.2,721.469L222.257,932.792L393.272,767.043C426.049,774.077 459.838,777.64 493.774,777.64C707.851,777.64 881.655,638.597 881.655,467.335Z" style="fill:rgb(0,167,255);"/>
        </g>
        <g id="Raven" transform="matrix(1,0,0,1.01758,228.185,171.188)">
            <path d="M132.74,430.52C133.81,427.94 143.79,422.13 146.11,422.74C146.77,422.91 149.6,422.52 152.41,421.86C156.73,420.85 158.34,420.76 162.96,421.26C168.24,421.82 168.54,421.78 172.21,420.1C174.3,419.14 176.01,418.03 176.02,417.63C176.03,417.23 176.84,416.73 177.82,416.52C178.86,416.29 179.75,415.62 179.93,414.93C180.1,414.27 180.9,413.48 181.71,413.18C182.53,412.87 183.56,412.17 184.02,411.62C184.47,411.07 185.92,410.02 187.24,409.28C188.55,408.54 189.63,407.75 189.63,407.54C189.63,407.32 191.75,405.49 194.34,403.48C199.95,399.12 210.81,390.28 211.25,389.72C211.42,389.5 214.69,386.44 218.51,382.92C222.33,379.4 225.46,376.1 225.46,375.6C225.46,375.1 224.02,372.76 222.27,370.4C219.65,366.87 217.8,365.26 211.92,361.37C207.98,358.76 203.57,355.72 202.11,354.61C200.65,353.5 197.36,351.59 194.79,350.38C189.68,347.95 186.86,346.08 177.5,338.92C174.06,336.29 170.03,333.37 168.54,332.44C165.11,330.29 146.09,311.2 140.88,304.68C138.71,301.96 136.28,299.17 135.48,298.48C134.68,297.78 133.4,296.05 132.63,294.61C128.25,286.41 124.7,280.38 123.82,279.65C123.26,279.19 122.22,277.68 121.5,276.3C120.52,274.43 120.13,274.07 119.95,274.9C119.55,276.78 118.52,275.77 116.91,271.91C116.06,269.88 114.85,267.66 114.22,266.98C112.73,265.37 108.36,252.8 107.21,246.87C106.72,244.34 105.89,241.44 105.35,240.42C104.81,239.4 104.21,237.6 104.01,236.41C103.56,233.76 101.9,228.29 101.28,227.45C100.13,225.9 96.724,211.06 95.714,203.24C95.398,200.79 94.593,197.59 93.925,196.13C93.257,194.67 92.431,192.5 92.09,191.31C91.749,190.12 90.505,186.32 89.327,182.86C86.426,174.36 85.36,165.13 86.348,157.09C87.331,149.09 87.311,148.33 86.142,149.3C85.633,149.72 85.216,150.43 85.216,150.88C85.216,151.33 84.894,151.89 84.501,152.14C83.223,152.93 84.489,145.8 86.526,140.74C88.132,136.75 88.479,134.93 88.754,129.04C89.009,123.58 88.909,122.1 88.295,122.24C87.25,122.48 85.719,116.82 86.149,114.31C86.375,112.99 86.209,112.27 85.626,112.04C84.25,111.52 83.866,107.15 84.929,104.11L85.872,101.42L84.283,103.11C82.098,105.45 81.279,105.3 81.775,102.66C82.351,99.589 80.365,96.094 78.345,96.623C77.592,96.82 77.191,96.369 76.887,94.985C76.597,93.664 76.104,93.075 75.288,93.075C73.711,93.075 71.652,91.249 72.053,90.204C72.259,89.667 71.915,89.369 71.087,89.369C70.011,89.369 69.857,89.089 70.143,87.658C70.399,86.378 70.092,85.522 68.922,84.26C68.062,83.332 67.09,82.573 66.762,82.573C66.434,82.573 66.074,82.33 65.96,82.034C65.847,81.737 64.332,80.778 62.593,79.902L59.431,78.31L36.767,78.21C16.907,78.122 14.126,77.994 14.289,77.176C15.043,73.399 44.801,63.262 62.665,60.696C66.403,60.159 73.458,59.137 78.344,58.424C83.229,57.711 88.453,57.11 89.952,57.087C91.451,57.064 92.808,56.836 92.966,56.579C94.385,54.283 59.259,40.29 45.058,37.495C36.379,35.786 21.435,34.407 18.581,35.05C15.537,35.737 15.008,34.946 16.96,32.627C20.48,28.443 33.115,24.283 44.307,23.622C68.119,22.216 80.298,22.198 91.085,23.553C100.06,24.681 100.71,24.593 103.76,21.852C105.94,19.899 106.79,19.527 108.92,19.584C110.32,19.622 113.54,19.38 116.07,19.045C122.3,18.221 139.35,19.189 147.26,20.815C158.89,23.207 169.39,27.341 176.03,32.141C178.24,33.738 181.04,35.701 182.25,36.504C183.47,37.306 184.97,38.747 185.6,39.705C186.23,40.663 188.36,43.423 190.35,45.839C192.33,48.255 193.95,50.493 193.95,50.813C193.95,51.133 194.6,52.363 195.4,53.546C196.2,54.73 197.21,56.81 197.65,58.169C198.08,59.528 199.2,62.169 200.14,64.038C201.08,65.907 202.26,68.27 202.77,69.29C204.28,72.303 205.42,75.2 206.91,79.792C207.68,82.171 209.39,85.968 210.7,88.23C213.93,93.794 214.52,95.363 214.65,98.763C214.71,100.36 215.11,102.09 215.53,102.6C215.96,103.11 216.42,104.72 216.55,106.18C216.7,107.78 217.2,109.08 217.81,109.45C218.38,109.79 220.12,110.97 221.68,112.07C223.25,113.17 225.78,114.78 227.31,115.64C228.84,116.51 231.11,117.97 232.35,118.89C242.34,126.32 247.38,130.35 251.1,133.9C253.48,136.17 257.41,139.38 259.84,141.04C266.02,145.25 275.65,153.9 280.08,159.2C281.06,160.38 283.27,163.29 284.99,165.67C286.71,168.05 289.53,171.8 291.26,174.01C292.99,176.22 295.12,179.14 295.99,180.5C296.87,181.86 298.94,185.05 300.6,187.6C302.26,190.15 303.72,192.51 303.86,192.85C304,193.19 305.96,196.39 308.23,199.96C310.49,203.53 313.19,207.97 314.22,209.84C322.29,224.51 323.93,226.7 331.07,232.32C335.9,236.13 336.79,236.71 343.17,240.16C347.7,242.6 351.82,245.26 355.34,247.99C357.21,249.44 363.66,255.98 369.7,262.56C372.41,265.51 374.96,267.92 375.35,267.92C375.75,267.92 378.71,270.49 381.94,273.63C385.16,276.78 388.59,279.94 389.57,280.67C390.55,281.4 392.24,283.76 393.33,285.92C395.85,290.91 399.45,295.23 404.91,299.82C407.28,301.81 410.06,304.39 411.09,305.55C413.04,307.73 415.03,309.74 416.46,310.94C422.06,315.65 434.75,331.77 439,339.58C439.65,340.77 440.7,342.52 441.34,343.48C443.19,346.24 441.84,346.92 437.83,345.26C434.33,343.81 432.43,343.54 432.43,344.51C432.43,344.84 433.02,346.16 433.75,347.44C437.28,353.67 437.99,355.38 437.99,357.66C437.99,359.72 437.59,360.49 435.52,362.44C434.16,363.72 433.05,365.01 433.07,365.31C433.08,365.6 434.95,367.15 437.24,368.75C444.22,373.64 446.8,375.91 452.03,381.77C453.24,383.12 455,384.27 456.45,384.66C458.05,385.1 459.55,386.15 460.94,387.83C462.08,389.21 463.94,391.22 465.08,392.3C470.88,397.78 472.33,399.07 474.08,400.3C475.13,401.04 477.93,403.2 480.31,405.11C482.69,407.02 485.88,409.31 487.41,410.21C488.94,411.1 491.06,412.66 492.12,413.66C493.18,414.66 495.96,416.74 498.3,418.28C500.64,419.82 503.8,421.94 505.33,422.98C509.09,425.54 511.36,427 518.61,431.54C525.88,436.08 530.88,440.61 530.45,442.26C530.24,443.08 530.52,443.38 531.49,443.41C532.52,443.43 533.33,444.45 535.02,447.88C536.7,451.29 537.72,452.59 539.34,453.41C542.06,454.77 548.62,461.91 550.84,465.93C551.81,467.68 552.59,470.08 552.63,471.49C552.68,472.85 552.93,474.85 553.19,475.94C553.99,479.29 551.84,479.18 544.25,475.5C529.81,468.49 524.29,466.37 528.34,469.4C529.28,470.09 530.04,470.95 530.04,471.3C530.04,472.28 534.34,479.23 536.48,481.74C541.19,487.23 544.87,492.4 544.87,493.52C544.87,494.19 545.16,495.28 545.51,495.94C546.01,496.86 545.95,497.23 545.26,497.49C544.71,497.7 541.58,495.59 537.23,492.08C528.43,484.97 521.58,479.64 517.22,476.52C514.06,474.26 513.86,474.2 513.06,475.29C512.25,476.38 511.9,476.32 504.6,473.83C494.61,470.42 480.94,465.46 477.84,464.11C476.48,463.53 472.72,462.13 469.5,461C466.27,459.88 461.61,458.12 459.15,457.1C456.68,456.08 454.67,455.5 454.67,455.82C454.67,456.53 457.37,460.92 467.34,476.43C469.3,479.49 471.91,483.57 473.14,485.51C474.99,488.43 475.74,491.11 477.53,491.42C481.58,503.84 481.56,507.47 489.66,514.33C487.93,521.54 437.05,488.45 439.94,489.14C330.11,480.85 91.77,501.57 132.74,430.52ZM431.58,478.27C431.14,477.11 421.36,463.41 417.79,458.94C416.17,456.92 411.78,453.21 406.34,449.27C395.34,441.28 393.02,439.4 384.46,431.5L377.58,425.15L368.75,423.37C359.27,421.46 348.06,417.93 336.67,413.27C330.11,410.59 313.31,402.49 308.25,399.57C301.61,395.74 292.86,392.52 291.47,393.4C290.82,393.82 290.87,393.93 291.68,393.94C292.26,393.95 292.9,394.23 293.11,394.57C293.33,394.92 292.81,395.19 291.91,395.19C290.92,395.19 290.33,394.84 290.33,394.26C290.33,392.82 289.37,393.17 288.58,394.91C287.61,397.03 287.67,398.16 288.68,396.78C289.44,395.73 289.62,395.72 291.43,396.66C292.49,397.21 293.74,397.66 294.2,397.66C294.66,397.66 295.58,398.06 296.24,398.54C297.2,399.25 297.28,399.58 296.66,400.21C295.53,401.36 295.72,402.81 297.11,403.68C297.82,404.13 298.18,404.83 297.97,405.37C297.76,405.92 298.06,406.47 298.69,406.71C299.71,407.1 299.7,407.17 298.64,407.95C297.62,408.69 297.61,408.78 298.55,408.78C299.33,408.78 299.6,409.32 299.6,410.94C299.6,412.78 299.39,413.1 298.21,413.09C296.97,413.08 291.77,410.56 288.04,408.16C287.29,407.68 286.49,407.47 286.27,407.7C285.81,408.15 287.87,410.89 291.33,414.46C292.54,415.72 293.44,417.04 293.33,417.4C293.21,417.75 290.33,416.38 286.93,414.35C280.25,410.36 278.74,409.83 279.83,411.87C280.19,412.55 280.85,413.1 281.29,413.1C282.41,413.1 284.99,415.98 284.27,416.43C283.94,416.63 282.46,415.71 280.98,414.37C279.5,413.03 277.8,411.51 277.2,410.98C276.61,410.45 275.88,410.01 275.59,410.01C274.11,410.01 250.79,437.41 250.79,439.16C250.79,439.4 252.11,439.76 253.72,439.97C257.16,440.4 258.27,440.61 261.6,441.46C262.96,441.81 268.24,443.08 273.34,444.29C282.12,446.38 285.3,447.05 292.49,448.32C294.19,448.62 297.67,449.44 300.22,450.15C302.76,450.86 306.24,451.69 307.94,452.01C309.64,452.32 313.81,453.25 317.21,454.08C320.6,454.9 326.44,456.17 330.18,456.89C337.04,458.21 342.34,459.41 346.86,460.66C349.59,461.42 357.93,463.29 365.09,464.75C367.63,465.27 374.03,466.65 379.3,467.82C389.29,470.04 395.18,471.28 400.92,472.39C407.41,473.63 412.98,474.83 415.44,475.51C416.8,475.89 420.53,476.74 423.74,477.41C426.95,478.07 429.7,478.75 429.87,478.91C430.59,479.64 431.92,479.14 431.58,478.27ZM238.2,432.72C243.49,427.03 260.06,404.39 260.06,402.86C260.06,402.39 259.22,401.58 258.2,401.06C256.44,400.14 256.35,400.16 256.35,401.35C256.35,403.32 255.14,402.83 252.17,399.67C250.66,398.05 249.73,397.34 250.11,398.08C250.87,399.58 250.06,400.57 249.08,399.35C248.75,398.93 248,397.65 247.41,396.5C246.02,393.76 242.79,390.24 241.67,390.24C241.18,390.24 239.97,389.38 238.99,388.32C237.2,386.41 237.18,386.41 235.5,387.49C230.91,390.45 216.72,402.74 207.58,411.67C201.95,417.17 197.12,421.94 196.83,422.27C196.55,422.61 195.64,423.61 194.82,424.51C194,425.4 193.33,426.35 193.33,426.61C193.33,427.28 212.74,431.22 216.81,431.37C224.07,431.64 232.36,432.8 233.68,433.71C235.62,435.07 236.12,434.96 238.2,432.72ZM441.13,339.94C441.1,339.29 441.25,338.93 441.45,339.13C441.66,339.34 441.68,339.87 441.5,340.32C441.3,340.81 441.16,340.66 441.13,339.94Z" style="fill-rule:nonzero;"/>
        </g>
    </g>
</svg>
